<?xml version="1.0" encoding="utf-8"?>
<!-- Generator: Adobe Illustrator 24.2.3, SVG Export Plug-In . SVG Version: 6.00 Build 0)  -->
<svg version="1.1" id="Layer_1" xmlns="http://www.w3.org/2000/svg" xmlns:xlink="http://www.w3.org/1999/xlink" x="0px" y="0px"
	 viewBox="0 0 655.66 277.64" style="enable-background:new 0 0 655.66 277.64;" xml:space="preserve">
<style type="text/css">
	.st0{fill:url(#SVGID_1_);}
	.st1{fill:url(#SVGID_2_);}
	.st2{fill:url(#SVGID_3_);}
	.st3{fill:url(#SVGID_4_);}
	.st4{fill:url(#SVGID_5_);}
	.st5{fill:url(#SVGID_6_);}
	.st6{fill:url(#SVGID_7_);}
	.st7{fill:url(#SVGID_8_);}
	.st8{fill:url(#SVGID_9_);}
	.st9{fill:url(#SVGID_10_);}
	.st10{fill:url(#SVGID_11_);}
	.st11{fill:url(#SVGID_12_);}
	.st12{fill:url(#SVGID_13_);}
	.st13{fill:url(#SVGID_14_);}
	.st14{fill:#FFFFFF;}
</style>
<g>
	<linearGradient id="SVGID_1_" gradientUnits="userSpaceOnUse" x1="29.7205" y1="165.6667" x2="29.7205" y2="263.0091">
		<stop  offset="0.6065" style="stop-color:#A1C847"/>
		<stop  offset="0.6259" style="stop-color:#80B641"/>
	</linearGradient>
	<path class="st0" d="M56.26,226.69H20.12c0.58,8.04,5.65,12.07,15.21,12.07c6.1,0,11.45-1.44,16.07-4.33v12.34
		c-5.12,2.74-11.78,4.11-19.97,4.11c-8.95,0-15.89-2.48-20.83-7.44c-4.94-4.96-7.41-11.88-7.41-20.75c0-9.2,2.67-16.49,8.01-21.86
		c5.34-5.37,11.9-8.06,19.7-8.06c8.08,0,14.33,2.4,18.75,7.2c4.42,4.8,6.63,11.31,6.63,19.53V226.69z M40.41,216.19
		c0-7.94-3.21-11.9-9.63-11.9c-2.74,0-5.11,1.14-7.12,3.41c-2,2.27-3.22,5.11-3.65,8.5H40.41z"/>
	<linearGradient id="SVGID_2_" gradientUnits="userSpaceOnUse" x1="74.9841" y1="165.6667" x2="74.9841" y2="263.0091">
		<stop  offset="0.6065" style="stop-color:#A1C847"/>
		<stop  offset="0.6259" style="stop-color:#80B641"/>
	</linearGradient>
	<path class="st1" d="M83.53,249.52h-17.1v-82.03h17.1V249.52z"/>
	<linearGradient id="SVGID_3_" gradientUnits="userSpaceOnUse" x1="121.1677" y1="165.6667" x2="121.1677" y2="263.0091">
		<stop  offset="0.6065" style="stop-color:#A1C847"/>
		<stop  offset="0.6259" style="stop-color:#80B641"/>
	</linearGradient>
	<path class="st2" d="M147.71,226.69h-36.15c0.58,8.04,5.65,12.07,15.21,12.07c6.1,0,11.45-1.44,16.07-4.33v12.34
		c-5.12,2.74-11.78,4.11-19.97,4.11c-8.95,0-15.89-2.48-20.83-7.44c-4.94-4.96-7.41-11.88-7.41-20.75c0-9.2,2.67-16.49,8.01-21.86
		c5.34-5.37,11.9-8.06,19.7-8.06c8.08,0,14.33,2.4,18.75,7.2c4.42,4.8,6.63,11.31,6.63,19.53V226.69z M131.85,216.19
		c0-7.94-3.21-11.9-9.63-11.9c-2.74,0-5.11,1.14-7.12,3.41c-2,2.27-3.22,5.11-3.65,8.5H131.85z"/>
	<linearGradient id="SVGID_4_" gradientUnits="userSpaceOnUse" x1="177.2263" y1="165.6667" x2="177.2263" y2="263.0091">
		<stop  offset="0.6065" style="stop-color:#A1C847"/>
		<stop  offset="0.6259" style="stop-color:#80B641"/>
	</linearGradient>
	<path class="st3" d="M199.87,247.52c-3.86,2.24-9.43,3.35-16.72,3.35c-8.51,0-15.4-2.58-20.67-7.74c-5.27-5.16-7.9-11.81-7.9-19.97
		c0-9.42,2.82-16.84,8.47-22.27c5.65-5.43,13.19-8.14,22.65-8.14c6.53,0,11.25,0.87,14.18,2.6v14.5c-3.57-2.67-7.56-4-11.96-4
		c-4.91,0-8.79,1.43-11.66,4.3c-2.87,2.87-4.3,6.83-4.3,11.88c0,4.91,1.37,8.76,4.11,11.55c2.74,2.8,6.51,4.19,11.31,4.19
		c4.26,0,8.42-1.33,12.5-4V247.52z"/>
	<linearGradient id="SVGID_5_" gradientUnits="userSpaceOnUse" x1="225.3311" y1="165.6667" x2="225.3311" y2="263.0091">
		<stop  offset="0.6065" style="stop-color:#A1C847"/>
		<stop  offset="0.6259" style="stop-color:#80B641"/>
	</linearGradient>
	<path class="st4" d="M244.57,248.88c-2.53,1.33-6.33,2-11.42,2c-12.05,0-18.07-6.26-18.07-18.78v-25.38h-8.98v-12.61h8.98v-11.96
		l17.04-4.87v16.83h12.45v12.61h-12.45v22.4c0,5.77,2.29,8.66,6.87,8.66c1.8,0,3.66-0.52,5.57-1.57V248.88z"/>
	<linearGradient id="SVGID_6_" gradientUnits="userSpaceOnUse" x1="272.2722" y1="165.6667" x2="272.2722" y2="263.0091">
		<stop  offset="0.6065" style="stop-color:#A1C847"/>
		<stop  offset="0.6259" style="stop-color:#80B641"/>
	</linearGradient>
	<path class="st5" d="M290.35,209.54c-2.06-1.12-4.46-1.68-7.2-1.68c-3.72,0-6.62,1.36-8.71,4.08c-2.09,2.72-3.14,6.43-3.14,11.12
		v26.46h-17.1v-55.41h17.1v10.28h0.22c2.71-7.5,7.58-11.26,14.61-11.26c1.8,0,3.21,0.22,4.22,0.65V209.54z"/>
	<linearGradient id="SVGID_7_" gradientUnits="userSpaceOnUse" x1="306.957" y1="165.6667" x2="306.957" y2="263.0091">
		<stop  offset="0.6065" style="stop-color:#A1C847"/>
		<stop  offset="0.6259" style="stop-color:#80B641"/>
	</linearGradient>
	<path class="st6" d="M306.96,185.35c-2.89,0-5.25-0.86-7.09-2.57c-1.84-1.71-2.76-3.81-2.76-6.3c0-2.56,0.92-4.65,2.76-6.28
		c1.84-1.62,4.2-2.44,7.09-2.44c2.92,0,5.29,0.81,7.12,2.44c1.82,1.62,2.73,3.72,2.73,6.28c0,2.6-0.91,4.73-2.73,6.39
		C312.25,184.52,309.88,185.35,306.96,185.35z M315.4,249.52h-17.1v-55.41h17.1V249.52z"/>
	<linearGradient id="SVGID_8_" gradientUnits="userSpaceOnUse" x1="349.1362" y1="165.6667" x2="349.1362" y2="263.0091">
		<stop  offset="0.6065" style="stop-color:#A1C847"/>
		<stop  offset="0.6259" style="stop-color:#80B641"/>
	</linearGradient>
	<path class="st7" d="M371.78,247.52c-3.86,2.24-9.43,3.35-16.72,3.35c-8.52,0-15.4-2.58-20.67-7.74c-5.27-5.16-7.9-11.81-7.9-19.97
		c0-9.42,2.82-16.84,8.47-22.27c5.65-5.43,13.19-8.14,22.65-8.14c6.53,0,11.25,0.87,14.18,2.6v14.5c-3.57-2.67-7.56-4-11.96-4
		c-4.91,0-8.79,1.43-11.66,4.3c-2.87,2.87-4.3,6.83-4.3,11.88c0,4.91,1.37,8.76,4.11,11.55c2.74,2.8,6.51,4.19,11.31,4.19
		c4.26,0,8.42-1.33,12.5-4V247.52z"/>
	<linearGradient id="SVGID_9_" gradientUnits="userSpaceOnUse" x1="411.7969" y1="165.6667" x2="411.7969" y2="263.0091">
		<stop  offset="0.6065" style="stop-color:#A1C847"/>
		<stop  offset="0.6259" style="stop-color:#80B641"/>
	</linearGradient>
	<path class="st8" d="M400.3,243.08h-0.22v31.93h-17.1v-80.9h17.1v8.33h0.22c4.22-6.46,10.15-9.69,17.8-9.69
		c7.18,0,12.72,2.46,16.64,7.39c3.91,4.92,5.87,11.62,5.87,20.1c0,9.24-2.28,16.65-6.85,22.24s-10.63,8.39-18.21,8.39
		C408.88,250.88,403.8,248.28,400.3,243.08z M399.81,220.36v4.44c0,3.82,1.01,6.94,3.03,9.36c2.02,2.42,4.67,3.62,7.95,3.62
		c3.9,0,6.92-1.51,9.06-4.52c2.15-3.01,3.22-7.28,3.22-12.8c0-9.74-3.79-14.61-11.36-14.61c-3.5,0-6.36,1.33-8.58,3.98
		C400.92,212.49,399.81,215.99,399.81,220.36z"/>
	<linearGradient id="SVGID_10_" gradientUnits="userSpaceOnUse" x1="478.3799" y1="165.6667" x2="478.3799" y2="263.0091">
		<stop  offset="0.6065" style="stop-color:#A1C847"/>
		<stop  offset="0.6259" style="stop-color:#80B641"/>
	</linearGradient>
	<path class="st9" d="M478.11,250.88c-9.24,0-16.5-2.59-21.78-7.76c-5.29-5.18-7.93-12.2-7.93-21.08c0-9.16,2.74-16.33,8.23-21.51
		c5.48-5.18,12.9-7.77,22.24-7.77c9.2,0,16.41,2.59,21.64,7.77c5.23,5.18,7.85,12.02,7.85,20.54c0,9.2-2.7,16.47-8.09,21.81
		S487.49,250.88,478.11,250.88z M478.54,205.86c-4.04,0-7.18,1.39-9.42,4.17c-2.24,2.78-3.35,6.71-3.35,11.8
		c0,10.64,4.29,15.96,12.88,15.96c8.19,0,12.28-5.46,12.28-16.4C490.93,211.03,486.8,205.86,478.54,205.86z"/>
	<linearGradient id="SVGID_11_" gradientUnits="userSpaceOnUse" x1="528.1079" y1="165.6667" x2="528.1079" y2="263.0091">
		<stop  offset="0.6065" style="stop-color:#A1C847"/>
		<stop  offset="0.6259" style="stop-color:#80B641"/>
	</linearGradient>
	<path class="st10" d="M528.11,185.35c-2.89,0-5.25-0.86-7.09-2.57c-1.84-1.71-2.76-3.81-2.76-6.3c0-2.56,0.92-4.65,2.76-6.28
		c1.84-1.62,4.2-2.44,7.09-2.44c2.92,0,5.29,0.81,7.12,2.44c1.82,1.62,2.73,3.72,2.73,6.28c0,2.6-0.91,4.73-2.73,6.39
		S531.03,185.35,528.11,185.35z M536.55,249.52h-17.1v-55.41h17.1V249.52z"/>
	<linearGradient id="SVGID_12_" gradientUnits="userSpaceOnUse" x1="577.7002" y1="165.6667" x2="577.7002" y2="263.0091">
		<stop  offset="0.6065" style="stop-color:#A1C847"/>
		<stop  offset="0.6259" style="stop-color:#80B641"/>
	</linearGradient>
	<path class="st11" d="M604.46,249.52h-17.04v-30.79c0-8.58-3.07-12.88-9.2-12.88c-2.96,0-5.39,1.14-7.3,3.41
		c-1.91,2.27-2.87,5.16-2.87,8.66v31.6h-17.1v-55.41h17.1v8.77h0.22c4.08-6.75,10.01-10.12,17.8-10.12c12.26,0,18.4,7.61,18.4,22.83
		V249.52z"/>
	<linearGradient id="SVGID_13_" gradientUnits="userSpaceOnUse" x1="632.2441" y1="165.6667" x2="632.2441" y2="263.0091">
		<stop  offset="0.6065" style="stop-color:#A1C847"/>
		<stop  offset="0.6259" style="stop-color:#80B641"/>
	</linearGradient>
	<path class="st12" d="M651.48,248.88c-2.53,1.33-6.33,2-11.42,2c-12.05,0-18.07-6.26-18.07-18.78v-25.38h-8.98v-12.61h8.98v-11.96
		l17.04-4.87v16.83h12.45v12.61h-12.45v22.4c0,5.77,2.29,8.66,6.87,8.66c1.8,0,3.66-0.52,5.57-1.57V248.88z"/>
</g>
<g>
	
		<radialGradient id="SVGID_14_" cx="275.3993" cy="30.2554" r="139.622" fx="271.5136" fy="29.9931" gradientUnits="userSpaceOnUse">
		<stop  offset="0.7223" style="stop-color:#A1C847"/>
		<stop  offset="0.7334" style="stop-color:#80B641"/>
	</radialGradient>
	<path class="st13" d="M324.73,153.58c-15.96,0-33.03-9.12-46.82-25.02c-13.38-15.42-21.05-34.05-21.05-51.12
		c0-42.25,24.1-65.51,67.87-65.51c22.5,0,39.75,5.51,51.29,16.37c11,10.36,16.58,25.19,16.58,44.09c0,14.77-7.9,30.62-20.5,40.7
		c0.82,0.94,1.31,1.81,1.55,2.31c1.17,2.4,2.45,7.29-2.1,13.11C358.52,145.13,347.71,153.58,324.73,153.58z M325.12,56.72
		c-5.12,0-9.29,4.17-9.29,9.29c0,5.12,4.17,9.29,9.29,9.29s9.29-4.17,9.29-9.29C334.41,60.89,330.24,56.72,325.12,56.72z"/>
	<path class="st14" d="M324.73,21.92c41.34,0,57.87,19.58,57.87,50.45c0,19.5-17.59,41.18-39.4,41.18
		c-26.21,0-40.87-19.22-46.96-28.04c0,0-0.42-0.65-0.93-0.65c-0.09,0-0.19,0.02-0.28,0.07c-0.97,0.5-0.4,1.38-0.4,1.38
		c12.45,28.19,35.68,34.62,52.19,34.62c4.97,0,9.33-0.58,12.6-1.33c1.46-0.33,2.6-0.49,3.43-0.49c2.35,0,2.37,1.23,0.81,3.22
		c-12,15.33-20.33,21.24-38.94,21.24c-27.56,0-57.87-35.48-57.87-66.14C266.85,42,285.36,21.92,324.73,21.92 M325.12,85.31
		c10.65,0,19.29-8.64,19.29-19.29c0-10.65-8.64-19.29-19.29-19.29c-10.65,0-19.29,8.64-19.29,19.29
		C305.83,76.67,314.47,85.31,325.12,85.31 M324.73,1.92c-24.75,0-44.19,6.81-57.77,20.25c-13.34,13.2-20.1,31.79-20.1,55.26
		c0,19.45,8.56,40.47,23.5,57.68c15.7,18.09,35.52,28.47,54.38,28.47c26.81,0,40.36-10.6,54.69-28.92
		c5.82-7.43,5.8-14.52,4.77-19.13c0.58-0.59,1.15-1.2,1.71-1.82c10.61-11.71,16.7-26.78,16.7-41.34c0-21.77-6.64-39.05-19.73-51.37
		C369.42,8.34,349.85,1.92,324.73,1.92L324.73,1.92z"/>
</g>
</svg>
