<?xml version="1.0" encoding="utf-8"?>
<!-- Generator: Adobe Illustrator 24.3.0, SVG Export Plug-In . SVG Version: 6.00 Build 0)  -->
<svg version="1.1" id="Layer_1" xmlns="http://www.w3.org/2000/svg" xmlns:xlink="http://www.w3.org/1999/xlink" x="0px" y="0px"
	 viewBox="0 0 68.1 63.1" style="enable-background:new 0 0 68.1 63.1;" xml:space="preserve">
<style type="text/css">
	.st0{fill:#777777;}
	.st1{fill:none;stroke:#777777;stroke-width:1.5;stroke-miterlimit:10;}
	.st2{fill:#FFFFFF;stroke:#777777;stroke-linecap:round;stroke-linejoin:round;stroke-miterlimit:10;}
	.st3{fill:#FFFFFF;stroke:#777777;stroke-miterlimit:10;}
	.st4{fill:#FFFFFF;}
	.st5{font-family:'ArialMT';}
	.st6{font-size:12px;}
	.st7{fill:none;}
</style>
<polygon class="st0" points="51,43.6 1,51.3 1,36.3 51,28.5 "/>
<polygon class="st0" points="66.3,53.8 12.5,62.3 12.5,47.2 66.3,38.8 "/>
<polygon class="st1" points="40.6,25.9 15.3,25.9 15.3,2.4 24.9,2.4 40.6,2.4 "/>
<rect x="25.2" y="2.4" class="st1" width="5.3" height="6.2"/>
<path class="st2" d="M11.9,10.7l12.2,9c0,0,0.6,0.2,1.2,0.1c0.7-0.1,2.4-0.7,3.4-0.4s3.9,1.1,4.2,1.4s1.7,1.2,1.4,1.5
	S33.9,23,32.9,23c-1,0-2.4-0.7-2.4-0.7s2.8,1.9,3.3,2.2c0.7,0.5,0.1,1.5-0.4,1.4c-0.1,0-0.5-0.1-0.6,0c0,0,0.2,0.4,0.2,0.5
	c0.2,0.4-0.3,1.1-0.8,1c-0.1,0-0.4-0.1-0.5,0s0,0.3,0,0.4c0.2,0.4-0.4,0.9-0.9,0.9c-0.1,0-0.3,0-0.4,0c-0.1,0.1,0,0.4-0.1,0.5
	c-0.2,0.8-0.9,0.7-1.2,0.7c-1.1,0-6.7-5.5-7.1-6c-0.3-0.4-1.3-0.9-2.5-1.5c-1.2-0.7-10.6-6.6-10.6-6.6L11.9,10.7z"/>
<polygon class="st3" points="9.8,14 7.9,17.3 4.3,15.4 9.5,6.9 12.6,9.2 "/>
<g>
	<path class="st4" d="M10.2,41.4c0-0.7-0.5-1.1-1.3-1c-1.4,0.2-1.7,1.9-1.5,3C7.6,44.4,7.9,45,9,44.8c0.8-0.1,1.3-0.8,1.3-1.5
		l1.8-0.3c-0.1,1.9-1.1,3-3.1,3.3c-1.1,0.2-3-0.1-3.4-2.7c-0.4-2.3,0.7-4.4,3.1-4.8c1.8-0.3,3.1,0.3,3.4,2.2L10.2,41.4z"/>
	<path class="st4" d="M13.3,38.3l1.8-0.3l-0.3,5.7l3.3-0.5L18,44.8l-5.1,0.8L13.3,38.3z"/>
	<path class="st4" d="M19.1,37.4l1.8-0.3l-0.3,7.3l-1.8,0.3L19.1,37.4z"/>
	<path class="st4" d="M26.5,38.8c0-0.7-0.5-1.1-1.3-1c-1.4,0.2-1.7,1.9-1.5,3c0.1,0.9,0.5,1.6,1.6,1.4c0.8-0.1,1.3-0.8,1.3-1.5
		l1.8-0.3c-0.1,1.9-1.1,3-3.1,3.3c-1.1,0.2-3-0.1-3.4-2.7c-0.4-2.3,0.7-4.4,3.1-4.8c1.8-0.3,3.1,0.3,3.4,2.2L26.5,38.8z"/>
	<path class="st4" d="M29.6,35.7l1.8-0.3l-0.1,2.9l0,0l2.4-3.2l2.4-0.4l-2.9,3.4l2.8,3.8l-2.1,0.3L32,39.5l-0.8,1L31,42.7L29.2,43
		L29.6,35.7z"/>
	<path class="st4" d="M44.1,37.9c0.2-0.3,0.3-0.6,0.3-0.9l1.5-0.2c-0.1,0.7-0.3,1.6-0.8,2.2l1.1,1.2l-1.8,0.3L44,40.2
		c-0.5,0.5-1,0.7-1.7,0.8c-1.2,0.2-2.4-0.4-2.6-1.7c-0.2-1.1,0.6-2,1.5-2.5c-0.3-0.3-0.5-0.6-0.6-1.1c-0.2-1.2,0.6-2.1,1.7-2.3
		c0.9-0.1,2,0.1,2.2,1.4c0.2,0.9-0.5,1.7-1.2,2.2L44.1,37.9z M42.1,37.8c-0.4,0.3-0.8,0.7-0.7,1.2c0.1,0.4,0.4,0.6,0.9,0.5
		c0.4-0.1,0.7-0.3,0.9-0.5L42.1,37.8z M42.5,34.6c-0.4,0.1-0.5,0.3-0.5,0.7c0,0.3,0.2,0.5,0.5,0.8c0.3-0.3,0.6-0.6,0.6-1
		C43,34.7,42.8,34.5,42.5,34.6z"/>
</g>
<g>
	<path class="st4" d="M21.5,53.2c0-0.7-0.5-1.1-1.3-1c-1.4,0.2-1.7,1.9-1.5,3c0.1,0.9,0.5,1.6,1.6,1.4c0.8-0.1,1.3-0.8,1.3-1.5
		l1.8-0.3c-0.1,1.9-1.1,3-3.1,3.3c-1.1,0.2-3-0.1-3.4-2.7c-0.4-2.3,0.7-4.4,3.1-4.8c1.8-0.3,3.1,0.3,3.4,2.2L21.5,53.2z"/>
	<path class="st4" d="M27.4,49.5c1.2-0.2,3.2-0.1,3.6,2.5c0.4,2.5-0.8,4.6-3.3,5c-2,0.3-3.3-0.7-3.6-2.6
		C23.8,52.1,25,49.9,27.4,49.5z M27.6,55.5c1.3-0.2,1.7-1.9,1.6-3c-0.2-1-0.6-1.6-1.6-1.4c-1.4,0.2-1.8,1.9-1.6,3.1
		C26.1,55,26.7,55.6,27.6,55.5z"/>
	<path class="st4" d="M32.2,48.9l1.8-0.3l-0.3,5.7l3.3-0.5L37,55.4l-5.1,0.8L32.2,48.9z"/>
	<path class="st4" d="M38.1,48l1.8-0.3l-0.3,5.7l3.3-0.5l-0.1,1.6l-5.1,0.8L38.1,48z"/>
	<path class="st4" d="M43.9,47l5.6-0.9l-0.1,1.6l-3.8,0.6l0,1.2l3.5-0.6l-0.1,1.5L45.6,51l-0.1,1.4l3.8-0.6l-0.1,1.6l-5.6,0.9
		L43.9,47z"/>
	<path class="st4" d="M55,47.8c0-0.7-0.5-1.1-1.3-1c-1.4,0.2-1.7,1.9-1.5,3c0.1,0.9,0.5,1.6,1.6,1.4c0.8-0.1,1.3-0.8,1.3-1.5
		l1.8-0.3c-0.1,1.9-1.1,3-3.1,3.3c-1.1,0.2-3-0.1-3.4-2.7c-0.4-2.3,0.7-4.4,3.1-4.8c1.8-0.3,3.1,0.3,3.4,2.2L55,47.8z"/>
	<path class="st4" d="M63.4,45.5l-2.1,0.3L61,51.5l-1.8,0.3l0.3-5.7l-2.1,0.3l0.1-1.6l6-1L63.4,45.5z"/>
</g>
<text transform="matrix(1 0 0 1 -1.106 1.682073e-05)" class="st5 st6"> </text>
<path id="SVGID_x5F_2_x5F_" class="st7" d="M14.1,58.9L71,49.2"/>
<text transform="matrix(1 0 0 1 -23.834 -14.1013)" class="st5 st6"> </text>
</svg>
