<?xml version="1.0" encoding="utf-8"?>
<!-- Generator: Adobe Illustrator 24.3.0, SVG Export Plug-In . SVG Version: 6.00 Build 0)  -->
<svg version="1.1" id="Layer_1" xmlns="http://www.w3.org/2000/svg" xmlns:xlink="http://www.w3.org/1999/xlink" x="0px" y="0px"
	 viewBox="0 0 91.4 62.2" style="enable-background:new 0 0 91.4 62.2;" xml:space="preserve">
<style type="text/css">
	.st0{fill:#86BB42;stroke:#669625;stroke-width:3;stroke-miterlimit:10;}
	.st1{fill:#FFFFFF;stroke:#86BB42;stroke-width:3;stroke-miterlimit:10;}
	.st2{fill:#86BB42;}
	.st3{fill:#86BB42;stroke:#75A532;stroke-width:3;stroke-miterlimit:10;}
	.st4{fill:#FFFFFF;stroke:#FFFFFF;stroke-width:3;stroke-miterlimit:10;}
	.st5{fill:#75A532;}
	.st6{fill:#86BB42;stroke:#75A532;stroke-width:3;stroke-linecap:round;stroke-miterlimit:10;}
</style>
<ellipse transform="matrix(0.9477 -0.3191 0.3191 0.9477 -8.8291 24.9911)" class="st0" cx="71.8" cy="39.4" rx="9.4" ry="11.9"/>
<ellipse transform="matrix(0.9477 -0.3191 0.3191 0.9477 -8.5584 25.9798)" class="st1" cx="75" cy="39.1" rx="1.3" ry="1.6"/>
<path class="st2" d="M89.9,45.7l-29.7,8.2L30,45.7V9l29.8-6l30.1,6V45.7z M86.5,9.6l-26.7-5L34,9.3l25.7,6.4L86.5,9.6z"/>
<polygon class="st2" points="73.3,13.1 46.5,6.6 48.6,5.7 75.3,12.1 "/>
<ellipse transform="matrix(0.9843 -0.1763 0.1763 0.9843 -7.5513 8.6898)" class="st3" cx="45.1" cy="46.8" rx="9.4" ry="11.9"/>
<ellipse transform="matrix(0.9923 -0.1236 0.1236 0.9923 -5.5005 5.9062)" class="st4" cx="44.9" cy="47.3" rx="0.9" ry="2"/>
<path class="st5" d="M89.9,45.7l-29.7,8.2L60,15.6l30-6.7V45.7z"/>
<path class="st6" d="M13.8,6.6c0.7,0.4,12.5,3.5,12.5,3.5"/>
<path class="st6" d="M3.8,12c0.7,0.4,22.6,6.2,22.6,6.2"/>
<path class="st6" d="M3.8,21.2c0.7,0.4,22.6,6.2,22.6,6.2"/>
<path class="st6" d="M13.8,34c0.7,0.4,12.5,3.5,12.5,3.5"/>
</svg>
