<?xml version="1.0" encoding="utf-8"?>
<!-- Generator: Adobe Illustrator 25.4.1, SVG Export Plug-In . SVG Version: 6.00 Build 0)  -->
<svg version="1.1" id="Layer_1" xmlns="http://www.w3.org/2000/svg" xmlns:xlink="http://www.w3.org/1999/xlink" x="0px" y="0px"
	 viewBox="0 0 527 58.4" style="enable-background:new 0 0 527 58.4;" xml:space="preserve">
<style type="text/css">
	.st0{enable-background:new    ;}
	.st1{fill:#FFFFFF;}
	.st2{fill:#78B344;}
</style>
<g class="st0">
	<path class="st1" d="M95.8,30.4c0,5.5-1.3,12.1-8.2,12.1c-6.9,0-8.2-6.6-8.2-12.1c0-5.5,1.3-12.1,8.2-12.1
		C94.5,18.3,95.8,24.9,95.8,30.4z M81.5,30.4c0,4.1,0.7,10.4,6.1,10.4s6.1-6.3,6.1-10.4c0-4.1-0.7-10.3-6.1-10.3
		S81.5,26.3,81.5,30.4z"/>
	<path class="st1" d="M113.6,42H98.1c0.2-7,7.3-8.7,11.3-12.7c1.3-1.3,1.9-2.6,1.9-4.4c0-3.1-2.4-4.8-5.3-4.8
		c-3.9,0-5.4,3.1-5.3,6.6h-2.1c-0.1-4.8,2.4-8.3,7.5-8.3c4.1,0,7.3,2.3,7.3,6.6c0,3.9-2.9,6.4-5.9,8.4c-2.3,1.5-6.5,3.6-7.1,6.8
		h13.1V42z"/>
	<path class="st1" d="M133.2,30.4c0,5.5-1.3,12.1-8.2,12.1c-6.9,0-8.2-6.6-8.2-12.1c0-5.5,1.3-12.1,8.2-12.1
		C131.8,18.3,133.2,24.9,133.2,30.4z M118.9,30.4c0,4.1,0.7,10.4,6.1,10.4s6.1-6.3,6.1-10.4c0-4.1-0.7-10.3-6.1-10.3
		S118.9,26.3,118.9,30.4z"/>
	<path class="st1" d="M137.5,34.5c-0.1,3.7,2.1,6.2,5.9,6.2c3.1,0,6-1.8,6-5.2c0-3.3-2.5-5-5.6-5H142v-1.8h1.8
		c2.2,0,4.8-1.3,4.8-4.3c0-3.1-2.3-4.4-5.1-4.4c-3.5,0-5.4,2.5-5.3,5.9H136c0-4.4,2.9-7.7,7.4-7.7c3.7,0,7.3,1.8,7.3,6
		c0,2.6-1.4,4.6-4,5.2v0.1c3.1,0.5,4.8,2.7,4.8,5.8c0,4.6-3.8,7.2-8.1,7.2c-4.9,0-8.4-3-8-8H137.5z"/>
	<path class="st1" d="M166.2,36.4c0.4,2.6,2.2,4.4,4.9,4.4c5.5,0,6.5-6.3,6.5-10.5h-0.1c-1.1,2.3-3.6,3.9-6.3,3.9
		c-4.7,0-7.8-3.3-7.8-7.9c0-4.6,3.3-8,8-8c5.7,0,8.2,3.3,8.2,12.5c0,2.8-0.7,11.7-8.4,11.7c-4.1,0-6.7-2-7.2-6.2H166.2z M177.1,26.1
		c0-3.3-1.8-6-5.9-6c-3.4,0-5.6,2.8-5.6,6c0,3.4,2.1,6.2,5.7,6.2C175,32.4,177.1,29.6,177.1,26.1z"/>
	<path class="st1" d="M184.9,36.4c0.4,2.6,2.2,4.4,4.9,4.4c5.5,0,6.5-6.3,6.5-10.5h-0.1c-1.1,2.3-3.6,3.9-6.3,3.9
		c-4.7,0-7.8-3.3-7.8-7.9c0-4.6,3.3-8,8-8c5.7,0,8.2,3.3,8.2,12.5c0,2.8-0.7,11.7-8.4,11.7c-4.1,0-6.7-2-7.2-6.2H184.9z M195.8,26.1
		c0-3.3-1.8-6-5.9-6c-3.4,0-5.6,2.8-5.6,6c0,3.4,2.1,6.2,5.7,6.2C193.7,32.4,195.8,29.6,195.8,26.1z"/>
	<path class="st1" d="M200.7,34.1l10.9-15.6h1.9v15.9h3.5v1.8h-3.5V42h-1.9v-5.8h-10.9V34.1z M211.6,34.4V21.6h-0.1l-8.9,12.8H211.6
		z"/>
	<path class="st1" d="M231.1,35.3c0.1,3.3,2.6,5.4,5.8,5.4c3.6,0,5.9-3,5.9-6.4c0-3.5-2.5-6.1-6-6.1c-2.1,0-4.1,1-5.2,2.8h-1.8
		l2.3-12.2h11.8v2h-10.3l-1.5,7.8l0.1,0.1c1.2-1.4,3.2-2.2,5-2.2c4.8,0,7.9,3.4,7.9,8.1c0,4.6-3.7,8-8.2,8c-4.4,0-7.6-2.8-7.7-7.2
		H231.1z"/>
	<path class="st1" d="M247.4,34.1l10.9-15.6h1.9v15.9h3.5v1.8h-3.5V42h-1.9v-5.8h-10.9V34.1z M258.3,34.4V21.6h-0.1l-8.9,12.8H258.3
		z"/>
	<path class="st1" d="M266.8,18.8H282v2c-2.9,3.1-9,10.3-9.5,21.3h-2.3c0.6-8,3.2-13.9,9.7-21.3h-13V18.8z"/>
	<path class="st1" d="M301.4,30.4c0,5.5-1.3,12.1-8.2,12.1c-6.9,0-8.2-6.6-8.2-12.1c0-5.5,1.3-12.1,8.2-12.1
		C300,18.3,301.4,24.9,301.4,30.4z M287.1,30.4c0,4.1,0.7,10.4,6.1,10.4c5.4,0,6.1-6.3,6.1-10.4c0-4.1-0.7-10.3-6.1-10.3
		C287.8,20.1,287.1,26.3,287.1,30.4z"/>
</g>
<g class="st0">
	<path class="st2" d="M339.1,25.3c-0.8-3.7-3.9-5.8-7.4-5.8c-6.4,0-9,5.3-9,10.6c0,5.2,2.7,10.6,9,10.6c4.4,0,7.3-3.4,7.7-7.7h2.3
		c-0.6,5.9-4.4,9.6-10,9.6c-7.6,0-11.3-5.9-11.3-12.5c0-6.6,3.8-12.5,11.3-12.5c4.5,0,9,2.7,9.6,7.8H339.1z"/>
	<path class="st2" d="M344.6,30c0.2-4.1,3.1-5.8,7-5.8c3.1,0,6.4,0.9,6.4,5.6V39c0,0.8,0.4,1.3,1.2,1.3c0.2,0,0.5-0.1,0.7-0.1v1.8
		c-0.5,0.1-0.8,0.1-1.4,0.1c-2.2,0-2.5-1.2-2.5-3H356c-1.5,2.3-3,3.5-6.3,3.5c-3.2,0-5.8-1.6-5.8-5.1c0-4.9,4.7-5,9.3-5.6
		c1.7-0.2,2.7-0.4,2.7-2.4c0-2.9-2-3.6-4.5-3.6c-2.6,0-4.6,1.2-4.6,4H344.6z M355.9,32.6L355.9,32.6c-0.3,0.5-1.3,0.7-1.8,0.8
		c-3.6,0.6-8.1,0.6-8.1,4c0,2.1,1.9,3.4,3.9,3.4c3.2,0,6.1-2.1,6.1-5.4V32.6z"/>
	<path class="st2" d="M362.3,18h2.1v24h-2.1V18z"/>
	<path class="st2" d="M368.5,18h2.1v24h-2.1V18z"/>
	<path class="st2" d="M384.2,18h2.3v14.9c0,5.6,2.6,7.7,7,7.7c4.4,0,7.1-2.1,7.1-7.7V18h2.3v15.4c0,4.9-2.7,9.1-9.3,9.1
		c-6.7,0-9.3-4.2-9.3-9.1V18z"/>
	<path class="st2" d="M417.4,29.8c-0.1-2.6-2.1-3.8-4.5-3.8c-1.9,0-4.1,0.7-4.1,3c0,1.9,2.2,2.6,3.6,2.9l2.8,0.6
		c2.4,0.4,4.9,1.8,4.9,4.8c0,3.8-3.7,5.2-7,5.2c-4,0-6.8-1.9-7.1-6.1h2.1c0.2,2.9,2.3,4.3,5.1,4.3c2,0,4.7-0.9,4.7-3.3
		c0-2-1.9-2.7-3.8-3.2l-2.7-0.6c-2.8-0.7-4.8-1.7-4.8-4.6c0-3.5,3.5-4.9,6.5-4.9c3.5,0,6.2,1.8,6.4,5.6H417.4z"/>
	<path class="st2" d="M430.4,18h19V20H441V42h-2.3V20h-8.4V18z"/>
	<path class="st2" d="M463,33.4c0,5-2.9,9.2-8.2,9.2s-8.2-4.2-8.2-9.2c0-5,2.9-9.2,8.2-9.2S463,28.4,463,33.4z M448.8,33.4
		c0,3.7,2,7.4,6.1,7.4s6.1-3.7,6.1-7.4c0-3.7-2-7.4-6.1-7.4S448.8,29.7,448.8,33.4z"/>
	<path class="st2" d="M481.5,42h-1.9v-3.3h-0.1c-0.9,2.3-3.7,3.8-6.2,3.8c-5.3,0-7.8-4.3-7.8-9.2c0-4.9,2.5-9.2,7.8-9.2
		c2.6,0,5.1,1.3,6,3.8h0.1V18h2.1V42z M473.3,40.8c4.5,0,6.1-3.8,6.1-7.4c0-3.6-1.6-7.4-6.1-7.4c-4,0-5.7,3.8-5.7,7.4
		C467.6,37,469.2,40.8,473.3,40.8z"/>
	<path class="st2" d="M485.3,30c0.2-4.1,3.1-5.8,7-5.8c3.1,0,6.4,0.9,6.4,5.6V39c0,0.8,0.4,1.3,1.2,1.3c0.2,0,0.5-0.1,0.7-0.1v1.8
		c-0.5,0.1-0.8,0.1-1.4,0.1c-2.2,0-2.5-1.2-2.5-3h-0.1c-1.5,2.3-3,3.5-6.3,3.5c-3.2,0-5.8-1.6-5.8-5.1c0-4.9,4.7-5,9.3-5.6
		c1.7-0.2,2.7-0.4,2.7-2.4c0-2.9-2.1-3.6-4.5-3.6c-2.6,0-4.6,1.2-4.6,4H485.3z M496.6,32.6L496.6,32.6c-0.3,0.5-1.3,0.7-1.8,0.8
		c-3.6,0.6-8.1,0.6-8.1,4c0,2.1,1.9,3.4,3.9,3.4c3.2,0,6.1-2.1,6.1-5.4V32.6z"/>
	<path class="st2" d="M501,24.7h2.3l5.7,14.8l5.3-14.8h2.1l-7.5,20c-1.2,2.9-1.9,3.8-4.6,3.8c-0.8,0-1.3,0-1.6-0.2v-1.8
		c0.5,0.1,1,0.2,1.4,0.2c1.9,0,2.3-1.1,3-2.7l0.7-2L501,24.7z"/>
</g>
<g>
	<g>
		<ellipse class="st2" cx="53.3" cy="30.9" rx="6.4" ry="9.3"/>
	</g>
	<g>
		<ellipse class="st2" cx="15" cy="30.9" rx="6.4" ry="9.3"/>
	</g>
	<g>
		<ellipse class="st2" cx="30.2" cy="50.9" rx="4.6" ry="3.5"/>
	</g>
	<g>
		<path class="st2" d="M52,25.4c0,0-0.4-4.9-2.9-9.7c-3.2-6.2-8.4-9.4-15.2-9.4S22,9.5,18.8,15.7c-2.5,4.8-2.8,9.7-2.9,9.7l-2.5-0.2
			c0-0.2,1.8-21.4,20.5-21.4S54.5,25,54.5,25.2L52,25.4z"/>
	</g>
	<g>
		<path class="st2" d="M31.8,51.9c-0.4,0-0.6,0-0.6,0l0.1-2c0.1,0,10.3,0.4,16.5-5.6c3.2-3.1,4.9-7.4,4.9-12.8h2
			c0,6-1.8,10.8-5.5,14.2C43.1,51.5,34.2,51.9,31.8,51.9z"/>
	</g>
</g>
</svg>
