<?xml version="1.0" encoding="utf-8"?>
<!-- Generator: Adobe Illustrator 25.4.1, SVG Export Plug-In . SVG Version: 6.00 Build 0)  -->
<svg version="1.1" id="Layer_1" xmlns="http://www.w3.org/2000/svg" xmlns:xlink="http://www.w3.org/1999/xlink" x="0px" y="0px"
	 viewBox="0 0 552.9 58.4" style="enable-background:new 0 0 552.9 58.4;" xml:space="preserve">
<style type="text/css">
	.st0{enable-background:new    ;}
	.st1{fill:#FFFFFF;}
	.st2{fill:#F6DB03;}
	.st3{fill:#FFDB02;}
	.st4{fill:none;stroke:#FFDB02;stroke-width:0.5;stroke-miterlimit:10;}
</style>
<g class="st0">
	<path class="st1" d="M469.5,34.1l10.9-15.6h1.9v15.9h3.5v1.8h-3.5V42h-1.9v-5.8h-10.9V34.1z M480.4,34.4V21.6h-0.1l-8.9,12.8H480.4
		z"/>
	<path class="st1" d="M490.5,42v-3.6h2.8V42H490.5z"/>
	<path class="st1" d="M509.2,29.4L509.2,29.4c3,0.7,4.8,2.9,4.8,6.1c0,4.7-3.7,7.1-8.1,7.1c-4.4,0-8.1-2.4-8.1-7.1
		c0.1-3.1,1.9-5.5,4.8-6v-0.1c-2.5-0.7-3.8-2.6-3.8-5.2c0-4,3.7-5.9,7.1-5.9c3.5,0,7.2,1.8,7.2,5.9C513,26.7,511.6,28.7,509.2,29.4z
		 M511.9,35.5c0-3.4-2.8-5.2-6-5.1c-3.2-0.1-6,1.6-6,5.1c0,3.5,2.7,5.3,6,5.3C509.2,40.8,511.9,39.1,511.9,35.5z M510.9,24.2
		c0-2.7-2.2-4.1-5-4.1c-2.6,0-5,1.4-5,4.1c0,3.2,2.6,4.4,5,4.4C508.5,28.6,510.9,27.2,510.9,24.2z"/>
	<path class="st1" d="M514.8,42.5l10.4-25h1.7l-10.3,25H514.8z"/>
	<path class="st1" d="M529.8,35.3c0.1,3.3,2.6,5.4,5.8,5.4c3.6,0,5.9-3,5.9-6.4c0-3.5-2.5-6.1-6-6.1c-2.1,0-4.1,1-5.2,2.8h-1.8
		l2.3-12.2h11.8v2h-10.3l-1.5,7.8l0.1,0.1c1.2-1.4,3.2-2.2,5-2.2c4.8,0,7.9,3.4,7.9,8.1c0,4.6-3.7,8-8.2,8c-4.4,0-7.6-2.8-7.7-7.2
		H529.8z"/>
</g>
<g>
	<path class="st1" d="M51.4,31.4H35.6c0.7-3.2,3.7-5.4,7.8-5.4C47.4,26,50.2,27.9,51.4,31.4 M61.4,38.4v-1.1
		c0-12.6-7.4-20.4-18.1-20.4c-4.6,0-9.1,1.9-12.5,5.3c-3.3,3.3-5.2,7.7-5.2,12.4c0,4.8,1.7,9.1,5,12.5c3.5,3.7,7.6,5.4,12.8,5.4
		c7.6,0,13.2-3.6,16.4-10.7H48.9c-1.5,1.3-3.2,1.9-5.2,1.9c-4.3,0-6.9-1.9-7.8-5.5h25.5V38.4z"/>
	<path class="st1" d="M89.1,31.4H73.3C74,28.2,77,26,81.1,26C85.1,26,87.9,27.9,89.1,31.4 M99.1,38.4v-1.1C99.1,24.8,91.7,17,81,17
		c-4.6,0-9.1,1.9-12.5,5.3c-3.3,3.3-5.2,7.7-5.2,12.4c0,4.8,1.7,9.1,5,12.5c3.5,3.7,7.6,5.4,12.8,5.4c7.6,0,13.2-3.6,16.4-10.7h-11
		c-1.5,1.3-3.2,1.9-5.2,1.9c-4.3,0-6.9-1.9-7.8-5.5h25.6V38.4z"/>
	<path class="st1" d="M11.6,25.6v26.3h9.8V25.6h4V18h-4v-0.8c0-3.1,0.7-4.1,3.7-4.1h0.3V6.3c-0.6,0-1.1-0.1-1.6-0.1
		c-8.3,0-12.2,3.3-12.2,10.5c0,0.4,0.1,0.8,0.1,1.3H7.9v7.6H11.6L11.6,25.6z"/>
	<path class="st1" d="M102.9,25.6v26.3h9.8V25.6h4V18h-4v-0.8c0-3.1,0.7-4.1,3.7-4.1h0.2V6.3c-0.6,0-1.1-0.1-1.6-0.1
		c-8.3,0-12.2,3.3-12.2,10.5c0,0.4,0.1,0.8,0.1,1.3h-3.7v7.6H102.9L102.9,25.6z"/>
	<path class="st1" d="M142.4,35c0,4.6-3.6,8.3-8,8.3s-8-3.7-8-8.3c0-4.7,3.6-8.4,8-8.4C138.8,26.6,142.4,30.3,142.4,35 M152.3,34.7
		c0-4.6-1.9-9.3-5.5-12.7c-3.4-3.2-7.6-4.9-12.5-4.9c-4.6,0-9.1,1.9-12.5,5.3c-3.3,3.3-5.2,7.7-5.2,12.4s1.7,9.1,5,12.5
		c3.5,3.7,7.6,5.4,12.8,5.4c5.1,0,9.4-1.8,12.9-5.3C150.6,44,152.3,39.8,152.3,34.7"/>
	<path class="st2" d="M167.6,29.2c-4.8-0.3-8.6-4.1-8.9-8.9h19h2V20c0-8.2-5.3-13.7-12.5-13.7c-7.7,0-12.9,5.6-12.9,12.9
		c0,6.9,5.4,13,12.8,13c5.3,0,9.6-3,11.9-8.5h-2.1c-1.5,3.2-4.8,5.4-8.6,5.4C168,29.2,167.8,29.2,167.6,29.2"/>
	<path class="st2" d="M194.2,29.2c4.8-0.3,8.6-4.1,8.9-8.9h-19h-2V20c0-8.2,5.3-13.7,12.5-13.7c7.7,0,12.9,5.6,12.9,12.9
		c0,6.9-5.4,13-12.8,13c-5.4,0-9.6-3-11.9-8.5h2.1c1.5,3.2,4.8,5.4,8.6,5.4C193.8,29.2,194,29.2,194.2,29.2"/>
</g>
<g>
	<path class="st3" d="M292.1,9.5l4.5,13.9c0.1,0.2,0.2,0.3,0.5,0.3h14.6c0.5,0,0.7,0.6,0.3,0.9l-11.8,8.6c-0.2,0.1-0.2,0.4-0.2,0.6
		l4.5,13.9c0.1,0.5-0.4,0.8-0.8,0.6l-11.8-8.6c-0.2-0.1-0.4-0.1-0.6,0l-11.8,8.6c-0.4,0.3-0.9-0.1-0.8-0.6l4.5-13.9
		c0.1-0.2,0-0.4-0.2-0.6l-11.8-8.6c-0.4-0.3-0.2-0.9,0.3-0.9h14.6c0.2,0,0.4-0.1,0.5-0.3l4.5-13.9C291.3,9,291.9,9,292.1,9.5
		L292.1,9.5z"/>
	<path class="st3" d="M341,9.5l4.5,13.9c0.1,0.2,0.2,0.3,0.5,0.3h14.6c0.5,0,0.7,0.6,0.3,0.9l-11.8,8.6c-0.2,0.1-0.2,0.4-0.2,0.6
		l4.5,13.9c0.1,0.5-0.4,0.8-0.8,0.6l-11.8-8.6c-0.2-0.1-0.4-0.1-0.6,0l-11.8,8.6c-0.4,0.3-0.9-0.1-0.8-0.6l4.5-13.9
		c0.1-0.2,0-0.4-0.2-0.6l-11.8-8.6c-0.4-0.3-0.2-0.9,0.3-0.9H335c0.2,0,0.4-0.1,0.5-0.3L340,9.5C340.2,9,340.9,9,341,9.5L341,9.5z"
		/>
	<path class="st3" d="M390,9.5l4.5,13.9c0.1,0.2,0.2,0.3,0.5,0.3h14.6c0.5,0,0.7,0.6,0.3,0.9l-11.8,8.6c-0.2,0.1-0.2,0.4-0.2,0.6
		l4.5,13.9c0.1,0.5-0.4,0.8-0.8,0.6l-11.8-8.6c-0.2-0.1-0.4-0.1-0.6,0l-11.8,8.6c-0.4,0.3-0.9-0.1-0.8-0.6l4.5-13.9
		c0.1-0.2,0-0.4-0.2-0.6l-11.8-8.6c-0.4-0.3-0.2-0.9,0.3-0.9H384c0.2,0,0.4-0.1,0.5-0.3L389,9.5C389.2,9,389.8,9,390,9.5L390,9.5z"
		/>
	<path class="st4" d="M438.9,9.5l4.5,13.9c0.1,0.2,0.2,0.3,0.5,0.3h14.6c0.5,0,0.7,0.6,0.3,0.9L447,33.2c-0.2,0.1-0.2,0.4-0.2,0.6
		l4.5,13.9c0.1,0.5-0.4,0.8-0.8,0.6l-11.8-8.6c-0.2-0.1-0.4-0.1-0.6,0l-11.8,8.6c-0.4,0.3-0.9-0.1-0.8-0.6l4.5-13.9
		c0.1-0.2,0-0.4-0.2-0.6L418,24.6c-0.4-0.3-0.2-0.9,0.3-0.9H433c0.2,0,0.4-0.1,0.5-0.3L438,9.5C438.1,9,438.8,9,438.9,9.5L438.9,9.5
		z"/>
	<path class="st3" d="M443.5,23.8l-4.8-14.6c-0.1-0.5-0.8-0.5-1,0l-4.5,14c-0.1,0.2-0.2,0.3-0.5,0.3h-14.4c-0.3,0-0.5,0.2-0.5,0.5
		l0,0c0,0.1,0.1,0.3,0.2,0.4l11.7,8.6c0.2,0.1,0.2,0.4,0.2,0.6l-4.5,14c-0.1,0.5,0.5,1.2,0.9,1l11.6-8.6c0.2-0.1,0.8-0.1,0.9,0.1
		l5.9,4.3V23.8C444.9,23.8,443.5,23.8,443.5,23.8z"/>
	<path class="st3" d="M243.3,9.5l4.5,13.9c0.1,0.2,0.2,0.3,0.5,0.3h14.6c0.5,0,0.7,0.6,0.3,0.9l-11.8,8.6c-0.2,0.1-0.2,0.4-0.2,0.6
		l4.5,13.9c0.1,0.5-0.4,0.8-0.8,0.6l-11.8-8.6c-0.2-0.1-0.4-0.1-0.6,0l-11.8,8.6c-0.4,0.3-0.9-0.1-0.8-0.6l4.5-13.9
		c0.1-0.2,0-0.4-0.2-0.6l-11.8-8.6c-0.4-0.3-0.2-0.9,0.3-0.9h14.6c0.2,0,0.4-0.1,0.5-0.3l4.5-13.9C242.5,9,243.2,9,243.3,9.5
		L243.3,9.5z"/>
</g>
</svg>
