<?xml version="1.0" encoding="utf-8"?>
<!-- Generator: Adobe Illustrator 25.4.1, SVG Export Plug-In . SVG Version: 6.00 Build 0)  -->
<svg version="1.1" id="Layer_1" xmlns="http://www.w3.org/2000/svg" xmlns:xlink="http://www.w3.org/1999/xlink" x="0px" y="0px"
	 viewBox="0 0 517.1 58.4" style="enable-background:new 0 0 517.1 58.4;" xml:space="preserve">
<style type="text/css">
	.st0{fill:#FFFFFF;}
	.st1{fill:#78B344;}
</style>
<g>
	<path class="st0" d="M13,18h15.2V20H15.3v8.7h11.5v1.9H15.3V42H13V18z"/>
	<path class="st0" d="M31,18h11c4,0,7.3,1.9,7.3,6.3c0,3-1.6,5.5-4.7,6.1v0.1c3.1,0.4,4,2.6,4.2,5.4c0.1,1.6,0.1,4.9,1.1,6.2h-2.5
		c-0.6-0.9-0.6-2.7-0.6-3.7c-0.2-3.4-0.5-7.1-4.8-6.9h-8.7V42H31V18z M33.3,29.4h8.5c2.8,0,5.2-1.7,5.2-4.7c0-2.9-1.7-4.8-5.2-4.8
		h-8.5V29.4z"/>
	<path class="st0" d="M53.4,18H70V20H55.7v8.7h13.4v1.9H55.7v9.5h14.5V42H53.4V18z"/>
	<path class="st0" d="M73.4,18H90V20H75.7v8.7H89v1.9H75.7v9.5h14.5V42H73.4V18z"/>
	<path class="st0" d="M102.7,18h8.3c7.2,0.2,11,4.1,11,12s-3.8,11.8-11,12h-8.3V18z M104.9,40.1h4.9c6.9,0,9.9-2.9,9.9-10.1
		s-3-10.1-9.9-10.1h-4.9V40.1z"/>
	<path class="st0" d="M126.5,33.9c0,3.1,1.6,6.8,5.7,6.8c3.1,0,4.8-1.8,5.4-4.4h2.1c-0.9,3.9-3.2,6.2-7.6,6.2
		c-5.5,0-7.8-4.2-7.8-9.2c0-4.6,2.3-9.2,7.8-9.2c5.6,0,7.8,4.9,7.6,9.7H126.5z M137.7,32.2c-0.1-3.2-2.1-6.2-5.5-6.2
		c-3.5,0-5.4,3-5.7,6.2H137.7z"/>
	<path class="st0" d="M142.8,18h2.1v24h-2.1V18z"/>
	<path class="st0" d="M149,18h2.1v3.4H149V18z M149,24.7h2.1V42H149V24.7z"/>
	<path class="st0" d="M153.2,24.7h2.4l5.4,15.2h0.1l5.4-15.2h2.2L162.1,42h-2.3L153.2,24.7z"/>
	<path class="st0" d="M172,33.9c0,3.1,1.6,6.8,5.7,6.8c3.1,0,4.8-1.8,5.4-4.4h2.1c-0.9,3.9-3.2,6.2-7.6,6.2c-5.5,0-7.8-4.2-7.8-9.2
		c0-4.6,2.3-9.2,7.8-9.2c5.6,0,7.8,4.9,7.6,9.7H172z M183.2,32.2c-0.1-3.2-2.1-6.2-5.5-6.2c-3.5,0-5.4,3-5.7,6.2H183.2z"/>
	<path class="st0" d="M188.2,24.7h2v4.1h0.1c1.1-2.8,3.4-4.4,6.6-4.3v2.1c-3.8-0.2-6.5,2.6-6.5,6.2V42h-2.1V24.7z"/>
	<path class="st0" d="M196.8,24.7h2.3l5.7,14.8l5.3-14.8h2.1l-7.5,20c-1.2,2.9-1.9,3.8-4.6,3.8c-0.8,0-1.3,0-1.6-0.2v-1.8
		c0.5,0.1,1,0.2,1.4,0.2c1.9,0,2.3-1.1,3-2.7l0.7-2L196.8,24.7z"/>
	<path class="st0" d="M239.2,33.4c0,5-2.9,9.2-8.2,9.2c-5.3,0-8.2-4.2-8.2-9.2s2.9-9.2,8.2-9.2C236.3,24.2,239.2,28.4,239.2,33.4z
		 M224.9,33.4c0,3.7,2,7.4,6.1,7.4s6.1-3.7,6.1-7.4c0-3.7-2-7.4-6.1-7.4S224.9,29.7,224.9,33.4z"/>
	<path class="st0" d="M242.3,24.7h2.1v3h0.1c0.8-2.1,3.1-3.5,5.5-3.5c4.9,0,6.4,2.6,6.4,6.7V42h-2.1V31.2c0-3-1-5.2-4.4-5.2
		c-3.4,0-5.4,2.6-5.4,6V42h-2.1V24.7z"/>
	<path class="st0" d="M280.2,17.5c7.5,0,11.3,5.9,11.3,12.5c0,6.6-3.8,12.5-11.3,12.5c-7.6,0-11.3-5.9-11.3-12.5
		C268.9,23.5,272.6,17.5,280.2,17.5z M280.2,40.6c6.3,0,9-5.3,9-10.6s-2.7-10.6-9-10.6c-6.4,0-9,5.3-9,10.6S273.8,40.6,280.2,40.6z"
		/>
	<path class="st0" d="M294.6,24.7h2v4.1h0.1c1.1-2.8,3.4-4.4,6.6-4.3v2.1c-3.8-0.2-6.5,2.6-6.5,6.2V42h-2.1V24.7z"/>
	<path class="st0" d="M319.9,42h-2v-3.3h-0.1c-0.9,2.3-3.7,3.8-6.2,3.8c-5.3,0-7.8-4.3-7.8-9.2s2.5-9.2,7.8-9.2c2.6,0,5.1,1.3,6,3.8
		h0.1V18h2.1V42z M311.7,40.8c4.5,0,6.1-3.8,6.1-7.4c0-3.6-1.6-7.4-6.1-7.4c-4,0-5.7,3.8-5.7,7.4C306,37,307.6,40.8,311.7,40.8z"/>
	<path class="st0" d="M325.2,33.9c0,3.1,1.6,6.8,5.7,6.8c3.1,0,4.8-1.8,5.4-4.4h2.1c-0.9,3.9-3.2,6.2-7.6,6.2
		c-5.5,0-7.8-4.2-7.8-9.2c0-4.6,2.3-9.2,7.8-9.2c5.6,0,7.8,4.9,7.6,9.7H325.2z M336.4,32.2c-0.1-3.2-2.1-6.2-5.5-6.2
		c-3.5,0-5.4,3-5.7,6.2H336.4z"/>
	<path class="st0" d="M341.4,24.7h2v4.1h0.1c1.1-2.8,3.4-4.4,6.6-4.3v2.1c-3.8-0.2-6.5,2.6-6.5,6.2V42h-2.1V24.7z"/>
	<path class="st0" d="M362.3,29.8c-0.1-2.6-2.1-3.8-4.5-3.8c-1.9,0-4.1,0.7-4.1,3c0,1.9,2.2,2.6,3.6,2.9l2.8,0.6
		c2.4,0.4,4.9,1.8,4.9,4.8c0,3.8-3.7,5.2-7,5.2c-4,0-6.8-1.9-7.1-6.1h2.1c0.2,2.9,2.3,4.3,5.1,4.3c2,0,4.7-0.9,4.7-3.3
		c0-2-1.9-2.7-3.8-3.2l-2.7-0.6c-2.8-0.7-4.8-1.7-4.8-4.6c0-3.5,3.5-4.9,6.5-4.9c3.5,0,6.2,1.8,6.4,5.6H362.3z"/>
	<path class="st0" d="M387.9,17.5c7.5,0,11.3,5.9,11.3,12.5c0,6.6-3.8,12.5-11.3,12.5c-7.6,0-11.3-5.9-11.3-12.5
		C376.6,23.5,380.3,17.5,387.9,17.5z M387.9,40.6c6.3,0,9-5.3,9-10.6s-2.7-10.6-9-10.6c-6.4,0-9,5.3-9,10.6S381.5,40.6,387.9,40.6z"
		/>
	<path class="st0" d="M400.4,24.7h2.4l5.4,15.2h0.1l5.4-15.2h2.2L409.3,42h-2.3L400.4,24.7z"/>
	<path class="st0" d="M419.2,33.9c0,3.1,1.6,6.8,5.7,6.8c3.1,0,4.8-1.8,5.4-4.4h2.1c-0.9,3.9-3.2,6.2-7.6,6.2
		c-5.5,0-7.8-4.2-7.8-9.2c0-4.6,2.3-9.2,7.8-9.2c5.6,0,7.8,4.9,7.6,9.7H419.2z M430.4,32.2c-0.1-3.2-2.1-6.2-5.5-6.2
		c-3.5,0-5.4,3-5.7,6.2H430.4z"/>
	<path class="st0" d="M435.4,24.7h2v4.1h0.1c1.1-2.8,3.4-4.4,6.6-4.3v2.1c-3.8-0.2-6.5,2.6-6.5,6.2V42h-2.1V24.7z"/>
</g>
<g>
	<path class="st1" d="M454.5,29.1h2.1c-1-1.2-1.6-3.1-1.6-4.7c0-4.2,4-6.9,7.9-6.9c5.1,0,8.4,2.8,8.4,8.3h-3.8
		c-0.1-2.9-1.3-5.1-4.5-5.1c-2,0-3.7,1.4-3.7,3.9c0,1.5,0.8,3.2,1.5,4.5h4.9v2.2h-4.1c0.3,0.6,0.5,1.4,0.5,2.3
		c0,2.5-1.6,4.2-3.4,5.5l0.1,0.1c1-0.4,2-0.9,3.1-0.9c1.1,0,1.9,0.3,2.7,0.6c0.7,0.3,1.5,0.6,2.5,0.6c1.2,0,2.3-0.5,3.3-1.3l1.7,2.6
		c-1.7,1.4-3.2,1.9-5.4,1.9c-1.1,0-2.2-0.3-3.3-0.5c-1.1-0.3-2.3-0.7-3.5-0.7c-1.1,0-2.6,0.4-3.4,1.1l-1.8-2.7
		c1.6-1.1,3.6-3.4,3.6-5.4c0-1.2-0.3-2.2-0.7-3.1h-3.1V29.1z"/>
	<path class="st1" d="M476.3,18.5h12.2v3.4h-9.3l-1.2,6L478,28c1-1.1,2.8-1.8,4.3-1.8c4.7,0,7.4,3.4,7.4,7.9c0,3.8-2.4,8.4-8.1,8.4
		c-4.5,0-8.1-2.5-8.2-7.2h3.8c0.2,2.5,1.8,4,4.3,4c3.3,0,4.4-2.3,4.4-5.2c0-2.6-1.4-4.9-4.5-4.9c-1.6,0-3.2,0.5-3.8,2.2h-3.8
		L476.3,18.5z"/>
	<path class="st1" d="M508.3,30.3c0,5.3-1.4,12.2-8.1,12.2s-8.1-6.9-8.1-12.2s1.4-12.2,8.1-12.2S508.3,24.9,508.3,30.3z M504.5,30.3
		c0-4.9-0.9-9-4.3-9s-4.3,4.1-4.3,9c0,4.9,0.9,9,4.3,9S504.5,35.2,504.5,30.3z"/>
</g>
</svg>
