<?xml version="1.0" encoding="utf-8"?>
<!-- Generator: Adobe Illustrator 25.4.1, SVG Export Plug-In . SVG Version: 6.00 Build 0)  -->
<svg version="1.1" id="Layer_1" xmlns="http://www.w3.org/2000/svg" xmlns:xlink="http://www.w3.org/1999/xlink" x="0px" y="0px"
	 viewBox="0 0 383.7 58.4" style="enable-background:new 0 0 383.7 58.4;" xml:space="preserve">
<style type="text/css">
	.st0{fill:#78B344;}
	.st1{enable-background:new    ;}
	.st2{fill:#FFFFFF;}
</style>
<g>
	<ellipse class="st0" cx="23.6" cy="12.1" rx="17.7" ry="7.9"/>
	<path class="st0" d="M7,20.3c-1.3-1.1-1.7,1.3-0.2,3.3c1.6,2.1,4.6,4,9.1,5.1c4.3,1.1,9.8,0.8,9.8,0.8c0.8-2.9,2.7-4.7,2.7-4.7
		s-9.2,0.8-14-0.8S8.4,21.4,7,20.3z"/>
	<path class="st0" d="M6.9,30.9c-1.3-1-1.8,1.5-0.2,3.3s3.8,3.6,8.3,5.1c4,1.3,9.6,1.4,9.6,1.4c-0.7-1.9-0.1-5.1-0.1-5.1
		s-5.4,0.4-10.2-1.1C9.9,33.1,8.2,31.8,6.9,30.9z"/>
	<path class="st0" d="M6.9,40.9c-1.3-1-1.8,1.5-0.2,3.3s4.9,3.7,8.8,5c4,1.3,13.1,2.3,13.1,2.3c-1-1.1-2.6-3.6-2.8-5.2
		c0,0-7.9-0.2-12.2-1.7C9.3,43,8.2,41.9,6.9,40.9z"/>
	<path class="st0" d="M59.7,37.6c0,8.8-7.1,15.9-15.9,15.9s-15.9-7.1-15.9-15.9S35,21.7,43.8,21.7S59.7,28.8,59.7,37.6z M50.6,47.7
		v-4h-8.7v-0.1c0.8-0.7,1.3-1.5,1.6-2.3s0.3-1.5,0.3-2.3h4v-3.4h-4.5C43.1,34.8,43,34,43,33.1c0-1.6,0.7-3.1,3-3.1
		c1.2,0,2.1,0.2,2.7,0.6l0.8-3.8c-0.7-0.4-2.1-0.8-3.8-0.8c-4.4,0-7.4,2.7-7.4,6.8c0,0.9,0.1,1.8,0.3,2.6H36v3.4h3.2
		c0.1,0.5,0.1,0.8,0.1,1.3c0,2.2-1.9,4.1-3.7,4.8v2.6C35.8,47.7,50.6,47.7,50.6,47.7z"/>
</g>
<g class="st1">
	<path class="st2" d="M78.7,18h10.7c4.3,0,7.1,2.5,7.1,6.9c0,4.3-2.8,6.9-7.1,6.9H81V42h-2.3V18z M81,29.8h7.9
		c3.2,0,5.3-1.6,5.3-4.9S92,20,88.9,20H81V29.8z"/>
	<path class="st2" d="M99.5,24.7h1.9v4.1h0.1c1.1-2.8,3.4-4.4,6.6-4.3v2.1c-3.8-0.2-6.5,2.6-6.5,6.2V42h-2.1V24.7z"/>
	<path class="st2" d="M110.1,18h2.1v3.4h-2.1V18z M110.1,24.7h2.1V42h-2.1V24.7z"/>
	<path class="st2" d="M128.5,30.1c-0.6-2.6-2.2-4.2-4.9-4.2c-4.1,0-6.1,3.7-6.1,7.4c0,3.7,2,7.4,6.1,7.4c2.6,0,4.8-2.1,5-4.9h2.1
		c-0.6,4.2-3.3,6.7-7.2,6.7c-5.3,0-8.2-4.2-8.2-9.2c0-5,2.9-9.2,8.2-9.2c3.7,0,6.6,2,7,6H128.5z"/>
	<path class="st2" d="M135,33.9c0,3.1,1.6,6.8,5.7,6.8c3.1,0,4.8-1.8,5.4-4.4h2.1c-0.9,3.9-3.2,6.2-7.6,6.2c-5.5,0-7.8-4.2-7.8-9.2
		c0-4.6,2.3-9.2,7.8-9.2c5.6,0,7.8,4.9,7.6,9.7H135z M146.2,32.2c-0.1-3.2-2.1-6.2-5.5-6.2c-3.5,0-5.4,3-5.7,6.2H146.2z"/>
	<path class="st2" d="M160.8,18h3.4l8.3,21l8.3-21h3.4v24h-2.3V21.3h-0.1L173.6,42h-2.2l-8.2-20.7h-0.1V42h-2.3V18z"/>
	<path class="st2" d="M188.3,30c0.2-4.1,3.1-5.8,7-5.8c3.1,0,6.4,0.9,6.4,5.6V39c0,0.8,0.4,1.3,1.2,1.3c0.2,0,0.5-0.1,0.7-0.1v1.8
		c-0.5,0.1-0.8,0.1-1.4,0.1c-2.2,0-2.5-1.2-2.5-3h-0.1c-1.5,2.3-3,3.5-6.3,3.5c-3.2,0-5.8-1.6-5.8-5.1c0-4.9,4.7-5,9.3-5.6
		c1.7-0.2,2.7-0.4,2.7-2.4c0-2.9-2.1-3.6-4.5-3.6c-2.6,0-4.6,1.2-4.6,4H188.3z M199.6,32.6L199.6,32.6c-0.3,0.5-1.3,0.7-1.8,0.8
		c-3.6,0.6-8.1,0.6-8.1,4c0,2.1,1.9,3.4,3.9,3.4c3.2,0,6.1-2.1,6.1-5.4V32.6z"/>
	<path class="st2" d="M209.3,24.7h3.5v1.8h-3.5v11.7c0,1.4,0.2,2.2,1.7,2.3c0.6,0,1.2,0,1.8-0.1v1.8c-0.6,0-1.2,0.1-1.9,0.1
		c-2.8,0-3.8-0.9-3.8-3.9V26.5h-3v-1.8h3v-5.2h2.1V24.7z"/>
	<path class="st2" d="M228.1,30.1c-0.6-2.6-2.2-4.2-4.9-4.2c-4.1,0-6.1,3.7-6.1,7.4c0,3.7,2,7.4,6.1,7.4c2.6,0,4.8-2.1,5-4.9h2.1
		c-0.6,4.2-3.3,6.7-7.2,6.7c-5.3,0-8.2-4.2-8.2-9.2c0-5,2.9-9.2,8.2-9.2c3.7,0,6.6,2,7,6H228.1z"/>
	<path class="st2" d="M233.3,18h2.1v9.6h0.1c0.8-2.1,3.1-3.5,5.5-3.5c4.9,0,6.4,2.6,6.4,6.7V42h-2.1V31.2c0-3-1-5.2-4.4-5.2
		c-3.4,0-5.4,2.6-5.4,6V42h-2.1V18z"/>
	<path class="st2" d="M261.1,18h10.7c4.3,0,7.1,2.5,7.1,6.9c0,4.3-2.8,6.9-7.1,6.9h-8.4V42h-2.3V18z M263.4,29.8h7.9
		c3.2,0,5.3-1.6,5.3-4.9s-2.2-4.9-5.3-4.9h-7.9V29.8z"/>
	<path class="st2" d="M281.9,24.7h2v4.1h0.1c1.1-2.8,3.4-4.4,6.6-4.3v2.1c-3.8-0.2-6.5,2.6-6.5,6.2V42h-2.1V24.7z"/>
	<path class="st2" d="M307.4,33.4c0,5-2.9,9.2-8.2,9.2c-5.3,0-8.2-4.2-8.2-9.2c0-5,2.9-9.2,8.2-9.2
		C304.5,24.2,307.4,28.4,307.4,33.4z M293.1,33.4c0,3.7,2,7.4,6.1,7.4c4.1,0,6.1-3.7,6.1-7.4c0-3.7-2-7.4-6.1-7.4
		C295.2,26,293.1,29.7,293.1,33.4z"/>
	<path class="st2" d="M310.6,24.7h1.9v2.9h0.1c1.1-2.1,2.9-3.4,5.7-3.4c2.3,0,4.3,1.1,5,3.4c1-2.3,3.2-3.4,5.5-3.4
		c3.8,0,5.7,2,5.7,6.1V42h-2.1V30.4c0-2.9-1.1-4.4-4.1-4.4c-3.7,0-4.7,3-4.7,6.3V42h-2.1V30.3c0-2.4-0.9-4.3-3.6-4.3
		c-3.7,0-5.1,2.8-5.2,6.4V42h-2.1V24.7z"/>
	<path class="st2" d="M338.6,18h2.1v3.4h-2.1V18z M338.6,24.7h2.1V42h-2.1V24.7z"/>
	<path class="st2" d="M355.2,29.8c-0.1-2.6-2.1-3.8-4.5-3.8c-1.9,0-4.1,0.7-4.1,3c0,1.9,2.2,2.6,3.6,2.9l2.8,0.6
		c2.4,0.4,4.9,1.8,4.9,4.8c0,3.8-3.7,5.2-7,5.2c-4,0-6.8-1.9-7.1-6.1h2.1c0.2,2.9,2.3,4.3,5.1,4.3c2,0,4.7-0.9,4.7-3.3
		c0-2-1.9-2.7-3.8-3.2l-2.7-0.6c-2.8-0.7-4.8-1.7-4.8-4.6c0-3.5,3.5-4.9,6.5-4.9c3.5,0,6.2,1.8,6.4,5.6H355.2z"/>
	<path class="st2" d="M362.2,33.9c0,3.1,1.6,6.8,5.7,6.8c3.1,0,4.8-1.8,5.4-4.4h2.1c-0.9,3.9-3.2,6.2-7.6,6.2
		c-5.5,0-7.8-4.2-7.8-9.2c0-4.6,2.3-9.2,7.8-9.2c5.6,0,7.8,4.9,7.6,9.7H362.2z M373.4,32.2c-0.1-3.2-2.1-6.2-5.5-6.2
		c-3.5,0-5.4,3-5.7,6.2H373.4z"/>
</g>
</svg>
